<svg width="1155" height="1155" xmlns="http://www.w3.org/2000/svg" xmlns:xlink="http://www.w3.org/1999/xlink" xml:space="preserve" overflow="hidden"><defs><clipPath id="clip0"><rect x="2577" y="456" width="1155" height="1155"/></clipPath></defs><g clip-path="url(#clip0)" transform="translate(-2577 -456)"><path d="M2577 1033.5C2577 714.556 2835.56 456 3154.5 456 3473.44 456 3732 714.556 3732 1033.5 3732 1352.44 3473.44 1611 3154.5 1611 2835.56 1611 2577 1352.44 2577 1033.5Z" fill="#FFFFFF" fill-rule="evenodd"/><rect x="2783" y="851" width="99" height="512" fill="#163E64"/><path d="M2734 799C2734 745.981 2778.32 703 2833 703 2887.68 703 2932 745.981 2932 799 2932 852.02 2887.68 895 2833 895 2778.32 895 2734 852.02 2734 799ZM2782 799C2782 825.51 2804.83 847 2833 847 2861.17 847 2884 825.51 2884 799 2884 772.49 2861.17 751 2833 751 2804.83 751 2782 772.49 2782 799Z" fill="#163E64" fill-rule="evenodd"/><rect x="3018" y="703" width="99" height="512" fill="#163E64"/><path d="M3166 1267C3166 1320.02 3121.68 1363 3067 1363 3012.32 1363 2968 1320.02 2968 1267 2968 1213.98 3012.32 1171 3067 1171 3121.68 1171 3166 1213.98 3166 1267ZM3118 1267C3118 1240.49 3095.17 1219 3067 1219 3038.83 1219 3016 1240.49 3016 1267 3016 1293.51 3038.83 1315 3067 1315 3095.17 1315 3118 1293.51 3118 1267Z" fill="#163E64" fill-rule="evenodd"/><rect x="2790" y="984" width="327" height="99.0001" fill="#163E64"/><rect x="3018" y="703" width="297" height="99" fill="#163E64"/><path d="M3305 703C3469.03 703 3602 850.746 3602 1033 3602 1215.25 3469.03 1363 3305 1363L3305 1264.12C3414.42 1264.12 3503.12 1160.64 3503.12 1033 3503.12 905.358 3414.42 801.883 3305 801.883Z" fill="#163E64" fill-rule="evenodd"/><rect x="3213" y="1099" width="99" height="264" fill="#163E64"/><path d="M3361 1033C3361 1086.02 3316.68 1129 3262 1129 3207.32 1129 3163 1086.02 3163 1033 3163 979.98 3207.32 937 3262 937 3316.68 937 3361 979.98 3361 1033ZM3313 1033C3313 1006.49 3290.17 985 3262 985 3233.83 985 3211 1006.49 3211 1033 3211 1059.51 3233.83 1081 3262 1081 3290.17 1081 3313 1059.51 3313 1033Z" fill="#163E64" fill-rule="evenodd"/></g></svg>